<mxfile host="app.diagrams.net" agent="Mozilla/5.0 (Windows NT 10.0; Win64; x64) AppleWebKit/537.36 (KHTML, like Gecko) Chrome/136.0.0.0 Safari/537.36" version="27.0.8">
  <diagram name="Page-1" id="3WEG0BcmEaPWdOdoA439">
    <mxGraphModel dx="946" dy="563" grid="1" gridSize="10" guides="1" tooltips="1" connect="1" arrows="1" fold="1" page="1" pageScale="1" pageWidth="827" pageHeight="1169" math="0" shadow="0">
      <root>
        <mxCell id="0" />
        <mxCell id="1" parent="0" />
        <mxCell id="UPl1scvbvViI10Mi023q-47" value="User" style="shape=umlActor;verticalLabelPosition=bottom;verticalAlign=top;html=1;rounded=0;labelBackgroundColor=none;fillColor=#F2CC8F;strokeColor=#E07A5F;fontColor=#393C56;" parent="1" vertex="1">
          <mxGeometry x="36" y="140" width="30" height="60" as="geometry" />
        </mxCell>
        <mxCell id="UPl1scvbvViI10Mi023q-49" value=":&amp;lt;&amp;lt;UI&amp;gt;&amp;gt;&lt;div&gt;modifyAmount&lt;/div&gt;&lt;div&gt;Window&lt;/div&gt;" style="rounded=0;whiteSpace=wrap;html=1;labelBackgroundColor=none;fillColor=#F2CC8F;strokeColor=#E07A5F;fontColor=#393C56;" parent="1" vertex="1">
          <mxGeometry x="130.37" y="280" width="120" height="60" as="geometry" />
        </mxCell>
        <mxCell id="UPl1scvbvViI10Mi023q-50" value="" style="rounded=0;whiteSpace=wrap;html=1;labelBackgroundColor=none;fillColor=#F2CC8F;strokeColor=#E07A5F;fontColor=#393C56;" parent="1" vertex="1">
          <mxGeometry x="116" y="120" width="148.75" height="100" as="geometry" />
        </mxCell>
        <mxCell id="UPl1scvbvViI10Mi023q-51" value="" style="endArrow=classic;dashed=1;html=1;rounded=0;entryX=0;entryY=0.5;entryDx=0;entryDy=0;startArrow=none;startFill=0;endFill=1;labelBackgroundColor=none;strokeColor=#E07A5F;fontColor=default;" parent="1" source="UPl1scvbvViI10Mi023q-47" target="UPl1scvbvViI10Mi023q-50" edge="1">
          <mxGeometry width="50" height="50" relative="1" as="geometry">
            <mxPoint x="6" y="208" as="sourcePoint" />
            <mxPoint x="76.71067811865476" y="158" as="targetPoint" />
          </mxGeometry>
        </mxCell>
        <mxCell id="UPl1scvbvViI10Mi023q-53" value="" style="rounded=0;whiteSpace=wrap;html=1;labelBackgroundColor=none;fillColor=#F2CC8F;strokeColor=#E07A5F;fontColor=#393C56;" parent="1" vertex="1">
          <mxGeometry x="186" y="158" width="60" height="20" as="geometry" />
        </mxCell>
        <mxCell id="UPl1scvbvViI10Mi023q-55" value="修改充电量" style="text;html=1;align=center;verticalAlign=middle;resizable=0;points=[];autosize=1;strokeColor=none;fillColor=none;rounded=0;labelBackgroundColor=none;fontColor=#393C56;" parent="1" vertex="1">
          <mxGeometry x="150.38" y="123" width="80" height="30" as="geometry" />
        </mxCell>
        <mxCell id="UPl1scvbvViI10Mi023q-57" value="充电量:" style="text;html=1;align=center;verticalAlign=middle;resizable=0;points=[];autosize=1;strokeColor=none;fillColor=none;rounded=0;labelBackgroundColor=none;fontColor=#393C56;" parent="1" vertex="1">
          <mxGeometry x="121" y="153" width="60" height="30" as="geometry" />
        </mxCell>
        <mxCell id="UPl1scvbvViI10Mi023q-59" value="确定" style="rounded=0;whiteSpace=wrap;html=1;labelBackgroundColor=none;fillColor=#F2CC8F;strokeColor=#E07A5F;fontColor=#393C56;" parent="1" vertex="1">
          <mxGeometry x="174.12" y="190" width="32.5" height="20" as="geometry" />
        </mxCell>
        <mxCell id="UPl1scvbvViI10Mi023q-63" value="" style="endArrow=none;html=1;rounded=0;entryX=0.5;entryY=1;entryDx=0;entryDy=0;exitX=0.5;exitY=0;exitDx=0;exitDy=0;labelBackgroundColor=none;strokeColor=#E07A5F;fontColor=default;" parent="1" source="UPl1scvbvViI10Mi023q-49" target="UPl1scvbvViI10Mi023q-50" edge="1">
          <mxGeometry width="50" height="50" relative="1" as="geometry">
            <mxPoint x="-4" y="588" as="sourcePoint" />
            <mxPoint x="46" y="538" as="targetPoint" />
          </mxGeometry>
        </mxCell>
        <mxCell id="UPl1scvbvViI10Mi023q-65" value="actionPerformed&lt;div&gt;(actionEvent)&lt;/div&gt;" style="text;html=1;align=center;verticalAlign=middle;resizable=0;points=[];autosize=1;strokeColor=none;fillColor=none;rounded=0;labelBackgroundColor=none;fontColor=#393C56;" parent="1" vertex="1">
          <mxGeometry x="76" y="230" width="110" height="40" as="geometry" />
        </mxCell>
        <mxCell id="UPl1scvbvViI10Mi023q-67" value="theCar:&lt;div&gt;Car&lt;/div&gt;" style="rounded=0;whiteSpace=wrap;html=1;labelBackgroundColor=none;fillColor=#F2CC8F;strokeColor=#E07A5F;fontColor=#393C56;" parent="1" vertex="1">
          <mxGeometry x="580.37" y="352" width="120" height="60" as="geometry" />
        </mxCell>
        <mxCell id="UPl1scvbvViI10Mi023q-74" style="edgeStyle=orthogonalEdgeStyle;rounded=0;orthogonalLoop=1;jettySize=auto;html=1;exitX=1;exitY=0.5;exitDx=0;exitDy=0;entryX=0;entryY=0.5;entryDx=0;entryDy=0;endArrow=none;startFill=0;labelBackgroundColor=none;strokeColor=#E07A5F;fontColor=default;" parent="1" source="UPl1scvbvViI10Mi023q-71" target="UPl1scvbvViI10Mi023q-72" edge="1">
          <mxGeometry relative="1" as="geometry" />
        </mxCell>
        <mxCell id="UPl1scvbvViI10Mi023q-71" value="controller:&lt;br&gt;WaitingController" style="rounded=0;whiteSpace=wrap;html=1;labelBackgroundColor=none;fillColor=#F2CC8F;strokeColor=#E07A5F;fontColor=#393C56;" parent="1" vertex="1">
          <mxGeometry x="377.63" y="280" width="120" height="60" as="geometry" />
        </mxCell>
        <mxCell id="UPl1scvbvViI10Mi023q-72" value=":DBFacade" style="rounded=0;whiteSpace=wrap;html=1;labelBackgroundColor=none;fillColor=#F2CC8F;strokeColor=#E07A5F;fontColor=#393C56;" parent="1" vertex="1">
          <mxGeometry x="669.63" y="280" width="120" height="60" as="geometry" />
        </mxCell>
        <mxCell id="UPl1scvbvViI10Mi023q-73" value="" style="endArrow=none;html=1;rounded=0;exitX=0;exitY=0.5;exitDx=0;exitDy=0;labelBackgroundColor=none;strokeColor=#E07A5F;fontColor=default;" parent="1" source="UPl1scvbvViI10Mi023q-71" edge="1">
          <mxGeometry width="50" height="50" relative="1" as="geometry">
            <mxPoint x="465.63" y="590" as="sourcePoint" />
            <mxPoint x="250" y="310" as="targetPoint" />
          </mxGeometry>
        </mxCell>
        <mxCell id="UPl1scvbvViI10Mi023q-78" value="1.3:theCar=insert(id,amount)" style="text;html=1;align=center;verticalAlign=middle;resizable=0;points=[];autosize=1;strokeColor=none;fillColor=none;rounded=0;labelBackgroundColor=none;fontColor=#393C56;" parent="1" vertex="1">
          <mxGeometry x="489.63" y="320" width="180" height="30" as="geometry" />
        </mxCell>
        <mxCell id="UPl1scvbvViI10Mi023q-79" value="1.1:theCar=get(id,Car)" style="text;html=1;align=center;verticalAlign=middle;resizable=0;points=[];autosize=1;strokeColor=none;fillColor=none;rounded=0;labelBackgroundColor=none;fontColor=#393C56;" parent="1" vertex="1">
          <mxGeometry x="509.63" y="270" width="140" height="30" as="geometry" />
        </mxCell>
        <mxCell id="UPl1scvbvViI10Mi023q-80" value="1.Modify_Amount&lt;div&gt;(car_Id, amount)&amp;nbsp;&lt;/div&gt;" style="text;html=1;align=center;verticalAlign=middle;resizable=0;points=[];autosize=1;strokeColor=none;fillColor=none;fontColor=#393C56;labelBackgroundColor=none;" parent="1" vertex="1">
          <mxGeometry x="257.63" y="259.6" width="120" height="40" as="geometry" />
        </mxCell>
        <mxCell id="TaGtF2507p_RmKuC2LY5-1" value="" style="endArrow=classic;html=1;rounded=0;labelBackgroundColor=none;strokeColor=#E07A5F;fontColor=default;exitX=0.099;exitY=-0.003;exitDx=0;exitDy=0;exitPerimeter=0;" parent="1" edge="1">
          <mxGeometry width="50" height="50" relative="1" as="geometry">
            <mxPoint x="518.5400000000001" y="299.66" as="sourcePoint" />
            <mxPoint x="640.72" y="299.75" as="targetPoint" />
          </mxGeometry>
        </mxCell>
        <mxCell id="TaGtF2507p_RmKuC2LY5-2" value="" style="endArrow=classic;html=1;rounded=0;labelBackgroundColor=none;strokeColor=#E07A5F;fontColor=default;" parent="1" edge="1">
          <mxGeometry width="50" height="50" relative="1" as="geometry">
            <mxPoint x="271.64" y="299.6" as="sourcePoint" />
            <mxPoint x="359.27" y="299.6" as="targetPoint" />
          </mxGeometry>
        </mxCell>
        <mxCell id="TaGtF2507p_RmKuC2LY5-4" value="" style="endArrow=classic;html=1;rounded=0;labelBackgroundColor=none;strokeColor=#E07A5F;fontColor=default;" parent="1" edge="1">
          <mxGeometry width="50" height="50" relative="1" as="geometry">
            <mxPoint x="509.63" y="318" as="sourcePoint" />
            <mxPoint x="659.63" y="318" as="targetPoint" />
          </mxGeometry>
        </mxCell>
        <mxCell id="TaGtF2507p_RmKuC2LY5-7" value="" style="endArrow=classic;html=1;rounded=0;labelBackgroundColor=none;strokeColor=#E07A5F;fontColor=default;" parent="1" edge="1">
          <mxGeometry width="50" height="50" relative="1" as="geometry">
            <mxPoint x="180" y="230" as="sourcePoint" />
            <mxPoint x="180" y="272" as="targetPoint" />
          </mxGeometry>
        </mxCell>
        <mxCell id="AuGd6tM3f1cPud9zQdKZ-2" value="" style="endArrow=none;html=1;rounded=0;entryX=0;entryY=0.5;entryDx=0;entryDy=0;labelBackgroundColor=none;strokeColor=#E07A5F;fontColor=default;exitX=0.5;exitY=1;exitDx=0;exitDy=0;" parent="1" source="UPl1scvbvViI10Mi023q-71" target="UPl1scvbvViI10Mi023q-67" edge="1">
          <mxGeometry width="50" height="50" relative="1" as="geometry">
            <mxPoint x="437.63" y="292" as="sourcePoint" />
            <mxPoint x="437.63" y="362.71067811865476" as="targetPoint" />
            <Array as="points">
              <mxPoint x="437.63" y="382" />
            </Array>
          </mxGeometry>
        </mxCell>
        <mxCell id="AuGd6tM3f1cPud9zQdKZ-3" value="1.2:[theCar!=NULL]&lt;div&gt;setAmount(amount)&lt;/div&gt;" style="text;html=1;align=center;verticalAlign=middle;resizable=0;points=[];autosize=1;strokeColor=none;fillColor=none;rounded=0;labelBackgroundColor=none;fontColor=#393C56;" parent="1" vertex="1">
          <mxGeometry x="440" y="392" width="130" height="40" as="geometry" />
        </mxCell>
        <mxCell id="AuGd6tM3f1cPud9zQdKZ-4" value="" style="endArrow=classic;html=1;rounded=0;labelBackgroundColor=none;strokeColor=#E07A5F;fontColor=default;exitX=0.099;exitY=-0.003;exitDx=0;exitDy=0;exitPerimeter=0;" parent="1" edge="1">
          <mxGeometry width="50" height="50" relative="1" as="geometry">
            <mxPoint x="447.8200000000001" y="392" as="sourcePoint" />
            <mxPoint x="570.0000000000001" y="392.09" as="targetPoint" />
          </mxGeometry>
        </mxCell>
      </root>
    </mxGraphModel>
  </diagram>
</mxfile>
